g ExportedNavMesh
v -1.666667 0.08333334 0
v -1.666667 0.08333334 0.5
v -2.833333 0.08333334 0.5
v -3.5 0.08333334 0.5
v -5.333333 0.08333334 0.5
v -5.333333 0.08333334 0
v -1.666667 0.08333334 0
v -2.833333 0.08333334 0.5
v -3.5 0.08333334 0.5
v -1.666667 0.08333334 0
v -5.333333 0.08333334 5.333333
v -5.333333 0.08333334 4.833333
v -2.333333 0.08333334 4.833333
v 0 0.08333334 5.333333
v -2.333333 0.08333334 4.833333
v -1.666667 0.08333334 4.833333
v 0 0.08333334 5.333333
v -2.833333 0.08333334 0.5
v -1.666667 0.08333334 0.5
v -1.333333 0.08333334 1.333333
v -0.6666667 0.08333334 3.333333
v -2.333333 0.08333334 4.833333
v -5.333333 0.08333334 4.833333
v -4.666667 0.08333334 2
v -5.333333 0.08333334 0.5
v -3.5 0.08333334 0.5
v -4.666667 0.08333334 1.5
v -5.333333 0.08333334 0.5
v -4.666667 0.08333334 1.5
v -4.666667 0.08333334 2
v -5.333333 0.08333334 4.833333
v 0 0.08333334 5.333333
v -1.666667 0.08333334 4.833333
v -0.6666667 0.08333334 4
v 0 0.08333334 5.333333
v -0.6666667 0.08333334 4
v -0.6666667 0.08333334 3.333333
v 0 0.08333334 1.333333
v -0.6666667 0.08333334 3.333333
v -1.333333 0.08333334 1.333333
v 0 0.08333334 1.333333
v 2 0.08333334 4
v 3.5 0.08333334 4
v 5.333333 0.08333334 5.333333
v 0 0.08333334 5.333333
v 2.666667 0.08333334 0
v 5.333333 0.08333334 0
v 5.333333 0.08333334 1.833333
v 3.5 0.08333334 1.833333
v 2.666667 0.08333334 1
v 2 0.08333334 1.833333
v 2.333333 0.08333334 1.333333
v 2.666667 0.08333334 1
v 3.5 0.08333334 1.833333
v 5.333333 0.08333334 4
v 3.5 0.08333334 4
v 3.833333 0.08333334 3.666667
v 3.833333 0.08333334 2.166667
v 3.5 0.08333334 1.833333
v 5.333333 0.08333334 1.833333
v 5.333333 0.08333334 4
v 3.833333 0.08333334 3.666667
v 3.833333 0.08333334 2.166667
v 5.333333 0.08333334 1.833333
v 2.333333 0.08333334 1.333333
v 2 0.08333334 1.833333
v 1.666667 0.08333334 2.166667
v 0 0.08333334 1.333333
v 3.5 0.08333334 4
v 5.333333 0.08333334 4
v 5.333333 0.08333334 5.333333
v 1.666667 0.08333334 3.666667
v 2 0.08333334 4
v 0 0.08333334 5.333333
v 0 0.08333334 1.333333
v 1.666667 0.08333334 2.166667
v 1.666667 0.08333334 3.666667
v 0 0.08333334 5.333333
v -3 0.08333334 -4.333333
v -5.333333 0.08333334 -4.333333
v -5.333333 0.08333334 -5.333333
v -5.333333 0.08333334 0
v -5.333333 0.08333334 -1.833333
v -3.5 0.08333334 -1.833333
v -1.666667 0.08333334 0
v -2.333333 0.08333334 -4.333333
v -3 0.08333334 -4.333333
v -5.333333 0.08333334 -5.333333
v 0 0.08333334 -5.333333
v -0.5 0.08333334 -1.833333
v -2.833333 0.08333334 -1.833333
v -1.666667 0.08333334 -2.5
v -0.5 0.08333334 -2.833333
v -0.5 0.08333334 -1.833333
v -0.5 0.08333334 -1.333333
v -1.333333 0.08333334 -0.833333
v -2.833333 0.08333334 -1.833333
v -0.5 0.08333334 -2.833333
v -1.666667 0.08333334 -2.5
v -1.666667 0.08333334 -3.333333
v -5.333333 0.08333334 -4.333333
v -3 0.08333334 -4.333333
v -4.166667 0.08333334 -3.666667
v -4 0.08333334 -2.5
v -3.5 0.08333334 -1.833333
v -5.333333 0.08333334 -1.833333
v -5.333333 0.08333334 -1.833333
v -5.333333 0.08333334 -4.333333
v -4.166667 0.08333334 -3.666667
v -4 0.08333334 -2.5
v -0.5 0.08333334 -1.333333
v 0 0.08333334 -1
v 0 0.08333334 -0.833333
v -1.333333 0.08333334 -0.833333
v -2.833333 0.08333334 -1.833333
v -1.333333 0.08333334 -0.833333
v -1.666667 0.08333334 0
v -3.5 0.08333334 -1.833333
v 0 0.08333334 -3.166667
v -0.5 0.08333334 -2.833333
v -1.666667 0.08333334 -3.333333
v -2.333333 0.08333334 -4.333333
v 0 0.08333334 -5.333333
v 5.333333 0.08333334 -5.333333
v 5.333333 0.08333334 -4.666667
v 3.5 0.08333334 -4.666667
v 5.333333 0.08333334 -5.333333
v 3.5 0.08333334 -4.666667
v 2.833333 0.08333334 -4.666667
v 2.666667 0.08333334 0
v 2.333333 0.08333334 -0.833333
v 3.833333 0.08333334 -2.166667
v 5.333333 0.08333334 -2.166667
v 5.333333 0.08333334 0
v 4.5 0.08333334 -4
v 3.5 0.08333334 -4.666667
v 5.333333 0.08333334 -4.666667
v 5.333333 0.08333334 -2.166667
v 3.833333 0.08333334 -2.166667
v 4.5 0.08333334 -3.166667
v 4.5 0.08333334 -3.166667
v 4.5 0.08333334 -4
v 5.333333 0.08333334 -4.666667
v 5.333333 0.08333334 -2.166667
v 2 0.08333334 -3
v 3.166667 0.08333334 -2.166667
v 1.666667 0.08333334 -2.166667
v 1.333333 0.08333334 -3.166667
v 2.333333 0.08333334 -0.833333
v 1.666667 0.08333334 -1.333333
v 1.666667 0.08333334 -2.166667
v 3.166667 0.08333334 -2.166667
v 2.333333 0.08333334 -4.166667
v 2 0.08333334 -3
v 1.333333 0.08333334 -3.166667
v 2.333333 0.08333334 -0.833333
v 1.333333 0.08333334 -1
v 1.666667 0.08333334 -1.333333
v 0 0.08333334 -0.833333
v 0 0.08333334 -1
v 1.333333 0.08333334 -1
v 2.333333 0.08333334 -0.833333
v 2.333333 0.08333334 -0.833333
v 3.166667 0.08333334 -2.166667
v 3.833333 0.08333334 -2.166667
v 2.333333 0.08333334 -4.166667
v 1.333333 0.08333334 -3.166667
v 0 0.08333334 -3.166667
v 2.333333 0.08333334 -4.166667
v 0 0.08333334 -3.166667
v 0 0.08333334 -5.333333
v 2.833333 0.08333334 -4.666667
v 0 0.08333334 -5.333333
v 5.333333 0.08333334 -5.333333
v 2.833333 0.08333334 -4.666667

vn 0 1 0
vn 0 1 0
vn 0 1 0
vn 0 1 0
vn 0 1 0
vn 0 1 0
vn 0 1 0
vn 0 1 0
vn 0 1 0
vn 0 1 0
vn 0 1 0
vn 0 1 0
vn 0 1 0
vn 0 1 0
vn 0 1 0
vn 0 1 0
vn 0 1 0
vn 0 1 0
vn 0 1 0
vn 0 1 0
vn 0 1 0
vn 0 1 0
vn 0 1 0
vn 0 1 0
vn 0 1 0
vn 0 1 0
vn 0 1 0
vn 0 0.9999999 0
vn 0 1 0
vn 0 0.9999999 0
vn 0 1 0
vn 0 1 0
vn 0 1 0
vn 0 1 0
vn 0 1 0
vn 0 1 0
vn 0 1 0
vn 0 1 0
vn 0 1 0
vn 0 1 0
vn 0 1 0
vn 0 1 0
vn 0 1 0
vn 0 1 0
vn 0 1 0
vn 0 1 0
vn 0 1 0
vn 0 1 0
vn 0 1 0
vn 0 1 0
vn 0 1 0
vn 0 1 0
vn 0 1 0
vn 0 1 0
vn 0 1 0
vn 0 1 0
vn 0 1 0
vn 0 1 0
vn 0 1 0
vn 0 1 0
vn 0 1 0
vn 0 1 0
vn 0 1 0
vn 0 1 0
vn 0 1 0
vn 0 0.9999999 0
vn 0 1 0
vn 0 1 0
vn 0 1 0
vn 0 1 0
vn 0 1 0
vn 0 1 0
vn 0 1 0
vn 0 1 0
vn 0 1 0
vn 0 1 0
vn 0 1 0
vn 0 1 0
vn 0 1 0
vn 0 1 0
vn 0 1 0
vn 0 1 0
vn 0 0.9999999 0
vn 0 1 0
vn 0 1 0
vn 0 0.9999999 0
vn 0 1 0
vn 0 0.9999999 0
vn 0 1 0
vn 0 1 0
vn 0 1 0
vn 0 1 0
vn 0 1 0
vn 0 1 0
vn 0 1 0
vn 0 1 0
vn 0 1 0
vn 0 1 0
vn 0 1 0
vn 0 1 0
vn 0 1 0
vn 0 1 0
vn 0 1 0
vn 0 1 0
vn 0 1 0
vn 0 1 0
vn 0 1 0
vn 0 1 0
vn 0 1 0
vn 0 1 0
vn 0 1 0
vn 0 1 0
vn 0 1 0
vn 0 1 0
vn 0 1 0
vn 0 1 0
vn 0 1 0
vn 0 1 0
vn 0 1 0
vn 0 1 0
vn 0 1 0
vn 0 1 0
vn 0 1 0
vn 0 1 0
vn 0 1 0
vn 0 1 0
vn 0 1 0
vn 0 1 0
vn 0 1 0
vn 0 0.9999999 0
vn 0 1 0
vn 0 1 0
vn 0 1 0
vn 0 1 0
vn 0 1 0
vn 0 1 0
vn 0 1 0
vn 0 1 0
vn 0 1 0
vn 0 1 0
vn 0 1 0
vn 0 1 0
vn 0 1 0
vn 0 1 0
vn 0 1 0
vn 0 1 0
vn 0 1 0
vn 0 1 0
vn 0 1 0
vn 0 1 0
vn 0 1 0
vn 0 1 0
vn 0 1 0
vn 0 1 0
vn 0 1 0
vn 0 1 0
vn 0 1 0
vn 0 1 0
vn 0 1 0
vn 0 1 0
vn 0 1 0
vn 0 1 0
vn 0 1 0
vn 0 1 0
vn 0 1 0
vn 0 1 0
vn 0 1 0
vn 0 1 0
vn 0 1 0
vn 0 1 0
vn 0 1 0
vn 0 1 0
vn 0 1 0
vn 0 1 0
vn 0 1 0


f 175/175/175 174/174/174 173/173/173
f 172/172/172 171/171/171 169/169/169
f 171/171/171 170/170/170 169/169/169
f 168/168/168 167/167/167 166/166/166
f 165/165/165 164/164/164 163/163/163
f 162/162/162 161/161/161 159/159/159
f 161/161/161 160/160/160 159/159/159
f 158/158/158 157/157/157 156/156/156
f 155/155/155 154/154/154 153/153/153
f 152/152/152 151/151/151 149/149/149
f 151/151/151 150/150/150 149/149/149
f 148/148/148 147/147/147 145/145/145
f 147/147/147 146/146/146 145/145/145
f 144/144/144 143/143/143 141/141/141
f 143/143/143 142/142/142 141/141/141
f 140/140/140 139/139/139 138/138/138
f 137/137/137 136/136/136 135/135/135
f 134/134/134 133/133/133 130/130/130
f 133/133/133 132/132/132 130/130/130
f 132/132/132 131/131/131 130/130/130
f 129/129/129 128/128/128 127/127/127
f 126/126/126 125/125/125 124/124/124
f 123/123/123 122/122/122 119/119/119
f 122/122/122 121/121/121 119/119/119
f 121/121/121 120/120/120 119/119/119
f 118/118/118 117/117/117 115/115/115
f 117/117/117 116/116/116 115/115/115
f 114/114/114 113/113/113 111/111/111
f 113/113/113 112/112/112 111/111/111
f 110/110/110 109/109/109 107/107/107
f 109/109/109 108/108/108 107/107/107
f 106/106/106 105/105/105 104/104/104
f 103/103/103 102/102/102 101/101/101
f 100/100/100 99/99/99 98/98/98
f 97/97/97 96/96/96 94/94/94
f 96/96/96 95/95/95 94/94/94
f 93/93/93 92/92/92 90/90/90
f 92/92/92 91/91/91 90/90/90
f 89/89/89 88/88/88 86/86/86
f 88/88/88 87/87/87 86/86/86
f 85/85/85 84/84/84 82/82/82
f 84/84/84 83/83/83 82/82/82
f 81/81/81 80/80/80 79/79/79
f 78/78/78 77/77/77 75/75/75
f 77/77/77 76/76/76 75/75/75
f 74/74/74 73/73/73 72/72/72
f 71/71/71 70/70/70 69/69/69
f 68/68/68 67/67/67 65/65/65
f 67/67/67 66/66/66 65/65/65
f 64/64/64 63/63/63 61/61/61
f 63/63/63 62/62/62 61/61/61
f 60/60/60 59/59/59 58/58/58
f 57/57/57 56/56/56 55/55/55
f 54/54/54 53/53/53 51/51/51
f 53/53/53 52/52/52 51/51/51
f 50/50/50 49/49/49 46/46/46
f 49/49/49 48/48/48 46/46/46
f 48/48/48 47/47/47 46/46/46
f 45/45/45 44/44/44 42/42/42
f 44/44/44 43/43/43 42/42/42
f 41/41/41 40/40/40 39/39/39
f 38/38/38 37/37/37 35/35/35
f 37/37/37 36/36/36 35/35/35
f 34/34/34 33/33/33 32/32/32
f 31/31/31 30/30/30 28/28/28
f 30/30/30 29/29/29 28/28/28
f 27/27/27 26/26/26 25/25/25
f 24/24/24 23/23/23 22/22/22
f 21/21/21 20/20/20 18/18/18
f 20/20/20 19/19/19 18/18/18
f 17/17/17 16/16/16 15/15/15
f 14/14/14 13/13/13 11/11/11
f 13/13/13 12/12/12 11/11/11
f 10/10/10 9/9/9 8/8/8
f 7/7/7 6/6/6 4/4/4
f 6/6/6 5/5/5 4/4/4
f 3/3/3 2/2/2 1/1/1
